<svg viewBox="0 0 1024 1176.463" xmlns="http://www.w3.org/2000/svg"><path d="M280.746 550.19h17.795c.065-.003.14-.003.217-.003 5.356 0 9.715 4.268 9.86 9.59v37.28c-.014 1.094-.218 2.136-.58 3.102l.022-.064c-1.445 3.86-5.102 6.56-9.39 6.56-.044 0-.09 0-.135-.002h-17.788l-.204.002c-5.358 0-9.72-4.267-9.872-9.588v-37.323c.153-5.31 4.495-9.558 9.83-9.558.087 0 .174 0 .26.003h-.012zM94 471.13h27.112c5.534.06 9.998 4.56 9.998 10.104v.143-.008 33.554c0 5.545-4.462 10.05-9.99 10.116h-4.006c-7.68.08-15.436 0-23.114 0zm148.48-62.863c-.072-.003-.158-.004-.243-.004-5.04 0-9.143 4.02-9.277 9.028v40.92c.147 5.334 4.506 9.602 9.86 9.602.077 0 .153 0 .228-.003h56.493c4.65.656 8.228 4.468 8.517 9.17v5.627c-.252 4.613-3.744 8.34-8.227 8.953l-.05.006h-27.992c-1.16-.08-2.513-.127-3.877-.127-33.066 0-59.872 26.806-59.872 59.873 0 .294.002.587.006.88v-.044 50.745c-.08 1.115-.124 2.417-.124 3.73 0 31.254 25.337 56.59 56.592 56.59 1.166 0 2.324-.034 3.472-.104l-.158.008h77.58c.164.005.358.007.552.007 13.385 0 24.278-10.668 24.64-23.966V473.73c.227-1.95.356-4.212.356-6.504 0-32.975-26.73-59.706-59.706-59.706-3.33 0-6.595.272-9.776.796l.346-.047zm160.114-.24c-5.244.044-9.477 4.306-9.477 9.556v.085-.003 98.77c-.048.908-.075 1.97-.075 3.04 0 33.85 27.442 61.292 61.293 61.292.676 0 1.35-.012 2.02-.034l-.1.003h26.993c.53.01 1.04.07 1.536.168l-.056-.01c5.034.662 8.88 4.925 8.88 10.086 0 5.118-3.783 9.354-8.705 10.063l-.055.006-.72.162-12.116.24h-50.426c-5.227.068-9.438 4.32-9.438 9.558v.045-.002 43.667c0 5.244 4.206 9.506 9.43 9.598h69.988c.548.02 1.193.03 1.84.03 33.854 0 61.297-27.445 61.297-61.298 0-1.066-.027-2.126-.08-3.18l.005.15V417.668v-.043c0-5.236-4.21-9.49-9.43-9.558H502.4c-5.226.067-9.437 4.32-9.437 9.557v.045-.002c-.2 31.47 0 60.982 0 90.176-.067 5.494-4.503 9.93-9.99 9.997h-17.96c-5.535-.067-9.996-4.57-9.996-10.116v-.086.005c.2-30.15-.2-59.983-.2-89.974v-.043c0-5.236-4.21-9.49-9.43-9.556h-.007zm-361.176 0c-5.135.043-9.28 4.216-9.28 9.357v.084-.003V654.36c-.005.116-.008.254-.008.392 0 4.9 3.804 8.91 8.62 9.243l.03.002h43.586c5.243-.04 9.477-4.3 9.477-9.55v-.053.003l.158-66.3h40.91c.65.027 1.415.043 2.182.043 30.936 0 56.015-25.08 56.015-56.015 0-1.144-.034-2.28-.102-3.406l.007.154V467.37c.062-.984.097-2.134.097-3.293 0-30.978-25.113-56.09-56.09-56.09-.743 0-1.482.014-2.217.043l.106-.003zm793.49-2.52c-16.013.025-30.623 6.01-41.735 15.853l.066-.058v-4.96c-.3-4.96-4.36-8.88-9.35-8.96h-42.797c-5.23.093-9.437 4.355-9.437 9.6v.082-.004 236.812c0 5.244 4.206 9.506 9.43 9.597h42.796c4.8-.05 8.74-3.66 9.313-8.312l.005-.046v-169.95c-.008-.185-.012-.403-.012-.622 0-8.374 6.55-15.22 14.807-15.69l.042-.002h7.837c3.46.277 6.57 1.59 9.067 3.622l-.03-.024c3.558 2.99 5.802 7.442 5.802 12.418 0 .12 0 .238-.004.356v-.018 162.913l.16 6.198v.04c0 5.258 4.23 9.53 9.472 9.598h42.798c5.086-.084 9.2-4.13 9.397-9.18v-.017l-.04-169.792c-.002-.124-.004-.27-.004-.417 0-5.453 2.737-10.267 6.91-13.145l.055-.035c2.22-1.485 4.893-2.465 7.775-2.715l.063-.004h7.917c8.292.566 14.803 7.43 14.803 15.816 0 .176-.003.35-.01.525l.002-.026c.2 55.824.16 111.968.16 168.91v.04c0 5.258 4.23 9.53 9.47 9.598h42.795c5.226-.063 9.438-4.315 9.438-9.55v-.09.004V472.21c.05-.925.076-2.006.076-3.094 0-7.15-1.2-14.02-3.408-20.42l.132.44c-8.763-25.46-32.455-43.454-60.367-43.584h-.617c-18.157.014-34.52 7.686-46.036 19.96l-.032.034c-11.56-12.31-27.937-19.982-46.105-19.994h-.002zm-168.952-46.784c-.567 0-1.12.06-1.653.17l.053-.01c-27.192 7.598-21.713 45.907-71.22 49.186h-4.8l-.166-.002c-.677 0-1.338.073-1.973.212l.022-.01c-4.255 1.045-7.36 4.827-7.36 9.334v.066-.003 43.583l-.002.105c0 5.245 4.237 9.5 9.475 9.532h25.795v184.987c0 5.163 4.16 9.353 9.313 9.397h42.313c5.16-.067 9.317-4.266 9.317-9.436v-.085.004V470.89h23.994c5.223-.05 9.437-4.294 9.437-9.524v-.12.007-43.584-.045c0-5.236-4.21-9.49-9.43-9.556h-24.48v-40.59-.08c0-4.788-3.86-8.674-8.636-8.717h-.004z"/></svg>